<svg width="55" height="24" viewBox="0 0 55 24" fill="none" xmlns="http://www.w3.org/2000/svg">
<path d="M0.136 18V0.959999H1.816V16.512H11.656V18H0.136ZM18.8389 18.24C17.9429 18.24 17.1109 18.072 16.3429 17.736C15.5909 17.384 14.9349 16.912 14.3749 16.32C13.8309 15.712 13.4069 15.024 13.1029 14.256C12.7989 13.472 12.6469 12.648 12.6469 11.784C12.6469 10.888 12.7989 10.056 13.1029 9.288C13.4069 8.504 13.8389 7.816 14.3989 7.224C14.9589 6.616 15.6149 6.144 16.3669 5.808C17.1349 5.456 17.9669 5.28 18.8629 5.28C19.7589 5.28 20.5829 5.456 21.3349 5.808C22.0869 6.144 22.7429 6.616 23.3029 7.224C23.8629 7.816 24.2949 8.504 24.5989 9.288C24.9029 10.056 25.0549 10.888 25.0549 11.784C25.0549 12.648 24.9029 13.472 24.5989 14.256C24.2949 15.024 23.8629 15.712 23.3029 16.32C22.7589 16.912 22.1029 17.384 21.3349 17.736C20.5829 18.072 19.7509 18.24 18.8389 18.24ZM14.3029 11.808C14.3029 12.736 14.5029 13.584 14.9029 14.352C15.3189 15.104 15.8709 15.704 16.5589 16.152C17.2469 16.584 18.0069 16.8 18.8389 16.8C19.6709 16.8 20.4309 16.576 21.1189 16.128C21.8069 15.68 22.3589 15.072 22.7749 14.304C23.1909 13.52 23.3989 12.672 23.3989 11.76C23.3989 10.832 23.1909 9.984 22.7749 9.216C22.3589 8.448 21.8069 7.84 21.1189 7.392C20.4309 6.944 19.6709 6.72 18.8389 6.72C18.0069 6.72 17.2469 6.952 16.5589 7.416C15.8869 7.88 15.3429 8.496 14.9269 9.264C14.5109 10.016 14.3029 10.864 14.3029 11.808ZM32.8004 18.168C31.9524 18.168 31.1684 17.992 30.4484 17.64C29.7284 17.288 29.1044 16.816 28.5764 16.224C28.0644 15.616 27.6644 14.928 27.3764 14.16C27.0884 13.392 26.9444 12.6 26.9444 11.784C26.9444 10.904 27.0804 10.08 27.3524 9.312C27.6404 8.528 28.0404 7.832 28.5524 7.224C29.0804 6.616 29.6964 6.144 30.4004 5.808C31.1044 5.456 31.8884 5.28 32.7524 5.28C33.8244 5.28 34.7524 5.552 35.5364 6.096C36.3364 6.64 37.0084 7.312 37.5524 8.112V5.496H39.0164V18.048C39.0164 19.2 38.7364 20.168 38.1764 20.952C37.6324 21.752 36.8884 22.352 35.9444 22.752C35.0164 23.152 34.0004 23.352 32.8964 23.352C31.4724 23.352 30.3204 23.096 29.4404 22.584C28.5604 22.072 27.8404 21.384 27.2804 20.52L28.2884 19.728C28.7844 20.512 29.4404 21.096 30.2564 21.48C31.0884 21.864 31.9684 22.056 32.8964 22.056C33.7124 22.056 34.4564 21.904 35.1284 21.6C35.8164 21.312 36.3604 20.872 36.7604 20.28C37.1764 19.688 37.3844 18.944 37.3844 18.048V15.576C36.9044 16.36 36.2484 16.992 35.4164 17.472C34.5844 17.936 33.7124 18.168 32.8004 18.168ZM33.2564 16.8C33.7524 16.8 34.2244 16.712 34.6724 16.536C35.1364 16.36 35.5604 16.128 35.9444 15.84C36.3284 15.536 36.6484 15.2 36.9044 14.832C37.1604 14.464 37.3204 14.088 37.3844 13.704V9.84C37.1444 9.232 36.8004 8.696 36.3524 8.232C35.9044 7.752 35.3924 7.384 34.8164 7.128C34.2564 6.856 33.6724 6.72 33.0644 6.72C32.3604 6.72 31.7284 6.872 31.1684 7.176C30.6244 7.464 30.1604 7.856 29.7764 8.352C29.4084 8.832 29.1204 9.376 28.9124 9.984C28.7044 10.592 28.6004 11.2 28.6004 11.808C28.6004 12.48 28.7204 13.12 28.9604 13.728C29.2004 14.32 29.5284 14.856 29.9444 15.336C30.3764 15.8 30.8724 16.16 31.4324 16.416C32.0084 16.672 32.6164 16.8 33.2564 16.8ZM47.9483 18.24C47.0523 18.24 46.2203 18.072 45.4523 17.736C44.7003 17.384 44.0443 16.912 43.4843 16.32C42.9403 15.712 42.5163 15.024 42.2123 14.256C41.9083 13.472 41.7563 12.648 41.7563 11.784C41.7563 10.888 41.9083 10.056 42.2123 9.288C42.5163 8.504 42.9483 7.816 43.5083 7.224C44.0683 6.616 44.7243 6.144 45.4763 5.808C46.2443 5.456 47.0763 5.28 47.9723 5.28C48.8683 5.28 49.6923 5.456 50.4443 5.808C51.1963 6.144 51.8523 6.616 52.4123 7.224C52.9723 7.816 53.4043 8.504 53.7083 9.288C54.0123 10.056 54.1643 10.888 54.1643 11.784C54.1643 12.648 54.0123 13.472 53.7083 14.256C53.4043 15.024 52.9723 15.712 52.4123 16.32C51.8683 16.912 51.2123 17.384 50.4443 17.736C49.6923 18.072 48.8603 18.24 47.9483 18.24ZM43.4123 11.808C43.4123 12.736 43.6123 13.584 44.0123 14.352C44.4283 15.104 44.9803 15.704 45.6683 16.152C46.3563 16.584 47.1163 16.8 47.9483 16.8C48.7803 16.8 49.5403 16.576 50.2283 16.128C50.9163 15.68 51.4683 15.072 51.8843 14.304C52.3003 13.52 52.5083 12.672 52.5083 11.76C52.5083 10.832 52.3003 9.984 51.8843 9.216C51.4683 8.448 50.9163 7.84 50.2283 7.392C49.5403 6.944 48.7803 6.72 47.9483 6.72C47.1163 6.72 46.3563 6.952 45.6683 7.416C44.9963 7.88 44.4523 8.496 44.0363 9.264C43.6203 10.016 43.4123 10.864 43.4123 11.808Z" fill="black"/>
</svg>
